<svg width="48" height="48" viewBox="0 0 48 48" fill="none" xmlns="http://www.w3.org/2000/svg">
<path d="M2 10C2 5.58172 5.58172 2 10 2H38C42.4183 2 46 5.58172 46 10V38C46 42.4183 42.4183 46 38 46H10C5.58172 46 2 42.4183 2 38V10Z" fill="#657EFF"/>
<path d="M28.1093 15.2636C27.7579 14.9121 27.188 14.9121 26.8365 15.2636C26.4851 15.6151 26.4851 16.1849 26.8365 16.5364L33.3939 23.0938H12.9C12.4029 23.0938 12 23.4967 12 23.9937C12 24.4908 12.4029 24.8937 12.9 24.8937H33.3931L26.8365 31.4503C26.4851 31.8017 26.4851 32.3716 26.8365 32.7231C27.188 33.0745 27.7579 33.0745 28.1093 32.7231L36.2027 24.6297C36.3714 24.4609 36.4663 24.232 36.4663 23.9933C36.4663 23.7546 36.3714 23.5257 36.2027 23.3569L28.1093 15.2636Z" fill="white"/>
</svg>
