<svg width="48" height="48" viewBox="0 0 48 48" fill="none" xmlns="http://www.w3.org/2000/svg">
<path d="M27.876 15.2698C27.5245 14.9184 26.9547 14.9184 26.6032 15.2698C26.2517 15.6213 26.2517 16.1911 26.6032 16.5426L33.1606 23.1H12.6667C12.1696 23.1 11.7667 23.5029 11.7667 24C11.7667 24.497 12.1696 24.9 12.6667 24.9H33.1597L26.6032 31.4565C26.2517 31.808 26.2517 32.3778 26.6032 32.7293C26.9547 33.0808 27.5245 33.0808 27.876 32.7293L35.9693 24.636C36.1381 24.4672 36.2329 24.2383 36.2329 23.9996C36.2329 23.7609 36.1381 23.5319 35.9693 23.3632L27.876 15.2698Z" fill="white"/>
</svg>
