<svg width="48" height="48" viewBox="0 0 48 48" fill="none" xmlns="http://www.w3.org/2000/svg">
<path d="M36 21.375C36 24.1362 30.625 26.375 24 26.375C17.375 26.375 12 24.1362 12 21.375M36 26.75C36 29.5112 30.625 31.75 24 31.75C17.375 31.75 12 29.5112 12 26.75M12 15.9525V32.0475C12 34.7825 17.375 37 24 37C30.625 37 36 34.7825 36 32.0475V15.9525M36 16C36 18.7614 30.6274 21 24 21C17.3726 21 12 18.7614 12 16C12 13.2386 17.3726 11 24 11C30.6274 11 36 13.2386 36 16Z" stroke="#3E58FF" stroke-width="1.5" stroke-miterlimit="10" stroke-linecap="round"/>
</svg>
