<svg width="48" height="48" viewBox="0 0 48 48" fill="none" xmlns="http://www.w3.org/2000/svg">
<path d="M7 8.65002L9.79936 9.2099C10.6614 9.3823 11.3097 10.0973 11.3972 10.972L11.76 14.6M11.76 14.6L13.5886 29.8383C13.7092 30.8435 14.5619 31.6 15.5743 31.6H34.0173C35.6233 31.6 37.0232 30.507 37.4128 28.9489L40.2855 17.4579C40.6484 16.0062 39.5505 14.6 38.0542 14.6H11.76Z" stroke="#0A243F" stroke-width="1.5" stroke-linecap="round"/>
<path d="M18.8999 26.5001H25.6999" stroke="#0A243F" stroke-width="1.5" stroke-linecap="round" stroke-linejoin="round"/>
<path d="M20.6 37.5501C20.6 38.9584 19.4583 40.1001 18.05 40.1001C16.6416 40.1001 15.5 38.9584 15.5 37.5501C15.5 36.1417 16.6416 35.0001 18.05 35.0001C19.4583 35.0001 20.6 36.1417 20.6 37.5501Z" fill="#0A243F"/>
<path d="M35.9001 37.5501C35.9001 38.9584 34.7584 40.1001 33.3501 40.1001C31.9417 40.1001 30.8001 38.9584 30.8001 37.5501C30.8001 36.1417 31.9417 35.0001 33.3501 35.0001C34.7584 35.0001 35.9001 36.1417 35.9001 37.5501Z" fill="#0A243F"/>
</svg>
