<svg width="48" height="48" viewBox="0 0 48 48" fill="none" xmlns="http://www.w3.org/2000/svg">
<path d="M12.5 13.15L14.4303 13.5361C15.0247 13.655 15.4718 14.148 15.5321 14.7512L15.7822 17.2528M15.7822 17.2528L17.0431 27.7603C17.1263 28.4534 17.7143 28.9751 18.4124 28.9751H31.1296C32.2371 28.9751 33.2024 28.2214 33.471 27.147L35.4519 19.2234C35.7021 18.2224 34.945 17.2528 33.9133 17.2528H15.7822Z" stroke="white" stroke-width="2" stroke-linecap="round"/>
<path d="M20.7055 25.4585H25.3944" stroke="white" stroke-width="2" stroke-linecap="round" stroke-linejoin="round"/>
<path d="M21.8778 33.0779C21.8778 34.049 21.0905 34.8363 20.1194 34.8363C19.1483 34.8363 18.3611 34.049 18.3611 33.0779C18.3611 32.1068 19.1483 31.3196 20.1194 31.3196C21.0905 31.3196 21.8778 32.1068 21.8778 33.0779Z" fill="white"/>
<path d="M32.4279 33.0779C32.4279 34.049 31.6406 34.8363 30.6695 34.8363C29.6984 34.8363 28.9112 34.049 28.9112 33.0779C28.9112 32.1068 29.6984 31.3196 30.6695 31.3196C31.6406 31.3196 32.4279 32.1068 32.4279 33.0779Z" fill="white"/>
</svg>
