<svg width="48" height="48" viewBox="0 0 48 48" fill="none" xmlns="http://www.w3.org/2000/svg">
<path d="M34.1556 14.9054C34.4485 14.6125 34.4485 14.1376 34.1556 13.8447C33.8627 13.5518 33.3878 13.5518 33.0949 13.8447L24.0002 22.9394L14.9056 13.8447C14.6127 13.5518 14.1378 13.5518 13.8449 13.8447C13.552 14.1376 13.552 14.6125 13.8449 14.9054L22.9396 24.0001L13.8449 33.0947C13.552 33.3876 13.552 33.8625 13.8449 34.1554C14.1378 34.4483 14.6127 34.4483 14.9056 34.1554L24.0002 25.0607L33.0949 34.1554C33.3878 34.4483 33.8627 34.4483 34.1556 34.1554C34.4485 33.8625 34.4485 33.3876 34.1556 33.0947L25.0609 24.0001L34.1556 14.9054Z" fill="#0A243F"/>
</svg>
