<svg width="48" height="48" viewBox="0 0 48 48" fill="none" xmlns="http://www.w3.org/2000/svg">
<path fill-rule="evenodd" clip-rule="evenodd" d="M13.6176 10.7058C11.5281 10.531 9.81 12.129 9.81 14.2134V30.3201C9.81 32.0238 11.1622 33.5927 12.8751 33.8099L13.2567 33.8625L13.2603 33.863C16.0488 34.2357 20.4146 35.6691 22.8825 37.0188C22.8918 37.0238 22.9011 37.0287 22.9105 37.0334L22.9499 37.0531C23.2815 37.2321 23.6582 37.3006 23.9921 37.3006C24.3281 37.3006 24.7125 37.2312 25.0471 37.0406C27.5138 35.6804 31.8835 34.237 34.6821 33.8637L35.117 33.811L35.1201 33.8106C36.8357 33.5962 38.191 32.0257 38.191 30.3201V14.2268C38.191 12.1332 36.4717 10.5636 34.4068 10.7163H34.3605C34.336 10.7163 34.3116 10.7173 34.2873 10.7194C31.3512 10.9711 26.9664 12.4418 24.4773 14.0079L24.4682 14.0138L24.2519 14.1538C24.2224 14.1704 24.1343 14.2029 24.0005 14.2029C23.8613 14.2029 23.7715 14.1678 23.7458 14.1518L23.7348 14.1451L23.4077 13.9488C20.9189 12.399 16.5532 10.9438 13.6176 10.7058ZM11.5243 14.2134C11.5243 13.1249 12.3921 12.3232 13.4754 12.4142L13.478 12.4144C16.1399 12.6299 20.2483 13.999 22.5069 15.4074L22.5195 15.4151L22.8482 15.6123C22.9428 15.6705 23.0417 15.7192 23.1429 15.7593V35.2207C20.4441 33.8672 16.2849 32.538 13.4892 32.1641L13.4873 32.1638L13.1043 32.111L13.0935 32.1096C12.249 32.004 11.5243 31.1745 11.5243 30.3201V14.2134ZM24.8572 35.205C27.5609 33.8522 31.6795 32.5337 34.4608 32.1638L34.4707 32.1625L34.9075 32.1096L34.9088 32.1094C35.7527 32.0032 36.4767 31.1741 36.4767 30.3201V14.2268C36.4767 13.1332 35.6037 12.3358 34.5122 12.4276C34.4884 12.4296 34.4644 12.4306 34.4405 12.4306H34.3979C31.7348 12.668 27.6433 14.0429 25.3948 15.456L25.1592 15.6085C25.0624 15.6686 24.9609 15.7186 24.8572 15.7597V35.205Z" fill="#2741E8"/>
<path d="M18.3328 19.3187H15.3328M19.3328 23.3187H15.3328" stroke="#2741E8" stroke-width="1.5" stroke-linecap="round" stroke-linejoin="round"/>
</svg>
