<svg width="48" height="48" viewBox="0 0 48 48" fill="none" xmlns="http://www.w3.org/2000/svg">
<path d="M19.9995 37.3314H27.9995C34.6661 37.3314 37.3328 34.6647 37.3328 27.9981V19.9981C37.3328 13.3314 34.6661 10.6647 27.9995 10.6647H19.9995C13.3328 10.6647 10.6661 13.3314 10.6661 19.9981V27.9981C10.6661 34.6647 13.3328 37.3314 19.9995 37.3314Z" stroke="#3E58FF" stroke-width="1.5" stroke-linecap="round" stroke-linejoin="round"/>
<path d="M28.6667 32.6686C30.1333 32.6686 31.3333 31.4686 31.3333 30.0019V18.0019C31.3333 16.5353 30.1333 15.3353 28.6667 15.3353C27.2 15.3353 26 16.5353 26 18.0019V30.0019C26 31.4686 27.1867 32.6686 28.6667 32.6686Z" stroke="#3E58FF" stroke-width="1.5" stroke-linecap="round" stroke-linejoin="round"/>
<path d="M19.3328 32.6647C20.7995 32.6647 21.9995 31.4647 21.9995 29.9981V25.3314C21.9995 23.8647 20.7995 22.6647 19.3328 22.6647C17.8661 22.6647 16.6661 23.8647 16.6661 25.3314V29.9981C16.6661 31.4647 17.8528 32.6647 19.3328 32.6647Z" stroke="#3E58FF" stroke-width="1.5" stroke-linecap="round" stroke-linejoin="round"/>
</svg>
