<svg width="48" height="48" viewBox="0 0 48 48" fill="none" xmlns="http://www.w3.org/2000/svg">
<path d="M36 15.9733C31.56 15.5333 27.0933 15.3066 22.64 15.3066C20 15.3066 17.36 15.44 14.72 15.7066L12 15.9733M19.3334 14.6267L19.6267 12.88C19.84 11.6134 20 10.6667 22.2534 10.6667H25.7467C28 10.6667 28.1734 11.6667 28.3734 12.8934L28.6667 14.6267M33.1334 20.1868L32.2667 33.6134C32.12 35.7068 32 37.3334 28.28 37.3334H19.72C16 37.3334 15.88 35.7068 15.7334 33.6134L14.8667 20.1868M21.7733 30H26.2133M20.6666 24.6667H27.3333" stroke="#3E4B62" stroke-width="1.5" stroke-linecap="round" stroke-linejoin="round"/>
</svg>
