<svg width="48" height="48" viewBox="0 0 48 48" fill="none" xmlns="http://www.w3.org/2000/svg">
<path d="M25.8537 31.1468L22.187 27.4802M25.8132 27.5199L22.1465 31.1866M19.7466 10.6667L14.9199 15.5067M28.2534 10.6667L33.0801 15.5067M12.6667 21.3334L14.5467 32.8534C14.9734 35.44 16.0001 37.3334 19.8134 37.3334H27.8534C32.0001 37.3334 32.6134 35.52 33.0934 33.0134L35.3334 21.3334M10.6667 18.4668C10.6667 16.0002 11.9867 15.8002 13.6267 15.8002H34.3734C36.0134 15.8002 37.3334 16.0002 37.3334 18.4668C37.3334 21.3335 36.0134 21.1335 34.3734 21.1335H13.6267C11.9867 21.1335 10.6667 21.3335 10.6667 18.4668Z" stroke="#3E58FF" stroke-width="3" stroke-linecap="round"/>
</svg>
