<svg width="48" height="48" viewBox="0 0 48 48" fill="none" xmlns="http://www.w3.org/2000/svg">
<path d="M26.0612 17.9739C26.0612 15.9711 27.1075 15.9711 28.1538 15.9711H29.4094C29.6191 15.9738 29.8272 15.9363 30.0214 15.8607C30.2156 15.7852 30.3921 15.6732 30.5403 15.5313C30.6886 15.3894 30.8056 15.2206 30.8845 15.0347C30.9635 14.8488 31.0027 14.6496 30.9999 14.449V12.5664C30.9999 12.3648 30.9581 12.1653 30.8768 11.9793C30.7956 11.7933 30.6766 11.6246 30.5267 11.483C30.3768 11.3414 30.199 11.2297 30.0036 11.1544C29.8082 11.0791 29.5991 11.0417 29.3885 11.0443L26.4169 11.0043C25.5517 10.9723 24.6895 11.1203 23.8898 11.4382C23.0902 11.7561 22.3721 12.2362 21.7852 12.8455C21.1983 13.4548 20.7565 14.1787 20.4904 14.9673C20.2242 15.7559 20.14 16.5903 20.2436 17.4131V20.3171H18.5904C18.1686 20.3171 17.7641 20.4774 17.4658 20.7629C17.1676 21.0483 17 21.4355 17 21.8392V23.7218C17 24.1254 17.1676 24.5126 17.4658 24.798C17.7641 25.0835 18.1686 25.2438 18.5904 25.2438H20.2436V35.9986C20.2436 36.2642 20.3539 36.5189 20.5501 36.7067C20.7463 36.8945 21.0124 37 21.2899 37H25.0776C25.3441 36.9847 25.5944 36.8724 25.7773 36.6863C25.9601 36.5001 26.0617 36.2541 26.0612 35.9986V25.2438H27.9027C28.3245 25.2438 28.7291 25.0835 29.0273 24.798C29.3256 24.5126 29.4931 24.1254 29.4931 23.7218V21.8392C29.4931 21.4355 29.3256 21.0483 29.0273 20.7629C28.7291 20.4774 28.3245 20.3171 27.9027 20.3171H26.0612V17.9739Z" stroke="#2741E8" stroke-width="1.8" stroke-linecap="round" stroke-linejoin="round"/>
</svg>
