<svg width="48" height="48" viewBox="0 0 48 48" fill="none" xmlns="http://www.w3.org/2000/svg">
<path d="M46 24C46 36.1503 36.1503 46 24 46C11.8497 46 2 36.1503 2 24C2 11.8497 11.8497 2 24 2C36.1503 2 46 11.8497 46 24Z" fill="#DEE6FE"/>
<path fill-rule="evenodd" clip-rule="evenodd" d="M31.0585 12.4148C29.2472 11.5179 27.1264 11.4757 25.2805 12.2999L14.1702 17.2607C13.4269 17.5926 12.9488 18.3267 12.9488 19.1362V20.4444C12.9488 21.2242 13.3928 21.9368 14.0953 22.2847L23.0764 26.7322C23.658 27.0202 24.342 27.0202 24.9236 26.7322L33.9834 22.2457C35.5745 21.4578 37.4444 22.6072 37.4444 24.3732V26.0492C37.4444 26.9507 36.9312 27.7746 36.119 28.1768L25.0678 33.6494C24.3954 33.9824 23.6046 33.9824 22.9322 33.6494L14.3229 29.386C13.6912 29.0732 12.9488 29.5295 12.9488 30.2307C12.9488 30.5886 13.1526 30.9157 13.475 31.0754L23.0875 35.8355C23.6651 36.1216 24.344 36.1236 24.9234 35.8411L32.4671 32.1621C33.0604 31.8728 33.7774 32.116 34.0686 32.7053C34.3599 33.2945 34.1151 34.0068 33.5219 34.2961L25.0588 38.4234C24.389 38.75 23.6041 38.7476 22.9363 38.4169L11.881 32.9423C11.0688 32.5401 10.5556 31.7162 10.5556 30.8148V28.7055C10.5556 26.9395 12.4255 25.7901 14.0166 26.578L23.0764 31.0645C23.658 31.3525 24.342 31.3525 24.9236 31.0645L34.633 26.2563C34.8893 26.1294 35.0512 25.8695 35.0512 25.5851C35.0512 25.028 34.4613 24.6654 33.9593 24.9139L25.0678 29.3171C24.3954 29.6501 23.6046 29.6501 22.9322 29.3171L11.881 23.8445C11.0688 23.4423 10.5556 22.6184 10.5556 21.7169V17.806C10.5556 16.8702 11.1083 16.0214 11.9676 15.6378L24.2993 10.1316C26.7998 9.01515 29.6727 9.07228 32.1263 10.2873C36.6021 12.5038 36.5088 18.879 31.97 20.9653L25.0295 24.1555C24.364 24.4614 23.594 24.4473 22.9402 24.1173L16.3771 20.8045C15.788 20.5071 15.553 19.7916 15.8524 19.2063C16.1518 18.6211 16.8722 18.3878 17.4613 18.6852L23.1289 21.546C23.6944 21.8314 24.3604 21.8436 24.9361 21.579L30.9649 18.8078C33.6823 17.5587 33.7382 13.7418 31.0585 12.4148Z" fill="#2741E8"/>
</svg>
