<svg width="48" height="48" viewBox="0 0 48 48" fill="none" xmlns="http://www.w3.org/2000/svg">
<path d="M19.3556 37C19.3556 37 18.3112 32.84 20.4001 30.76C20.4001 30.76 16.2223 30.76 13.0889 27.64C9.95555 24.52 11 18.28 13.0889 16.2C12.0445 13.08 14.1334 11 14.1334 11C14.1334 11 17.2667 11 19.3556 13.08C21.4445 12.04 26.6668 12.04 28.7557 13.08C30.8446 11 33.978 11 33.978 11C33.978 11 36.0669 13.08 35.0224 16.2C37.1113 18.28 38.1558 24.52 35.0224 27.64C31.8891 30.76 27.7113 30.76 27.7113 30.76C29.8002 32.84 28.7557 37 28.7557 37M18.3112 35.96C15.1778 37 12.0445 34.92 11 33.88" stroke="#2741E8" stroke-width="1.8" stroke-linecap="round" stroke-linejoin="round"/>
</svg>
