<svg width="48" height="48" viewBox="0 0 48 48" fill="none" xmlns="http://www.w3.org/2000/svg">
<path d="M23.9996 29.7797V30.6797V29.7797ZM29.7773 24.0019H30.6773H29.7773ZM23.9996 18.2241V17.3241V18.2241ZM18.2218 24.0019H17.3218H18.2218ZM18.2222 11V10.1V11ZM31.2784 15.4678C30.9441 15.8355 30.9712 16.4047 31.3389 16.7391C31.7067 17.0735 32.2759 17.0464 32.6103 16.6786L31.2784 15.4678ZM32.6255 16.6618C32.9599 16.2941 32.9328 15.7249 32.565 15.3905C32.1972 15.0561 31.628 15.0832 31.2936 15.451L32.6255 16.6618ZM23.9996 30.6797C25.7706 30.6797 27.4691 29.9761 28.7215 28.7238L27.4487 27.451C26.5339 28.3657 25.2932 28.8797 23.9996 28.8797V30.6797ZM28.7215 28.7238C29.9738 27.4714 30.6773 25.7729 30.6773 24.0019H28.8773C28.8773 25.2955 28.3634 26.5362 27.4487 27.451L28.7215 28.7238ZM30.6773 24.0019C30.6773 22.2308 29.9738 20.5323 28.7215 19.28L27.4487 20.5528C28.3634 21.4675 28.8773 22.7082 28.8773 24.0019H30.6773ZM28.7215 19.28C27.4691 18.0276 25.7706 17.3241 23.9996 17.3241V19.1241C25.2932 19.1241 26.5339 19.638 27.4487 20.5528L28.7215 19.28ZM23.9996 17.3241C22.2285 17.3241 20.53 18.0276 19.2777 19.28L20.5504 20.5528C21.4652 19.638 22.7059 19.1241 23.9996 19.1241V17.3241ZM19.2777 19.28C18.0253 20.5323 17.3218 22.2308 17.3218 24.0019H19.1218C19.1218 22.7082 19.6357 21.4675 20.5504 20.5528L19.2777 19.28ZM17.3218 24.0019C17.3218 25.7729 18.0253 27.4714 19.2777 28.7238L20.5504 27.451C19.6357 26.5362 19.1218 25.2955 19.1218 24.0019H17.3218ZM19.2777 28.7238C20.53 29.9761 22.2285 30.6797 23.9996 30.6797V28.8797C22.7059 28.8797 21.4652 28.3657 20.5504 27.451L19.2777 28.7238ZM11.9 29.7778V18.2222H10.1V29.7778H11.9ZM11.9 18.2222C11.9 16.5455 12.5661 14.9374 13.7517 13.7517L12.4789 12.4789C10.9557 14.0022 10.1 16.0681 10.1 18.2222H11.9ZM13.7517 13.7517C14.9374 12.5661 16.5455 11.9 18.2222 11.9V10.1C16.0681 10.1 14.0022 10.9557 12.4789 12.4789L13.7517 13.7517ZM18.2222 11.9H29.7778V10.1H18.2222V11.9ZM29.7778 11.9C31.4545 11.9 33.0626 12.5661 34.2483 13.7517L35.5211 12.4789C33.9978 10.9557 31.9319 10.1 29.7778 10.1V11.9ZM34.2483 13.7517C35.4339 14.9374 36.1 16.5455 36.1 18.2222H37.9C37.9 16.0681 37.0443 14.0022 35.5211 12.4789L34.2483 13.7517ZM36.1 18.2222V29.7778H37.9V18.2222H36.1ZM36.1 29.7778C36.1 31.4545 35.4339 33.0626 34.2483 34.2483L35.5211 35.5211C37.0443 33.9978 37.9 31.9319 37.9 29.7778H36.1ZM34.2483 34.2483C33.0626 35.4339 31.4545 36.1 29.7778 36.1V37.9C31.9319 37.9 33.9978 37.0443 35.5211 35.5211L34.2483 34.2483ZM29.7778 36.1H18.2222V37.9H29.7778V36.1ZM18.2222 36.1C16.5455 36.1 14.9374 35.4339 13.7517 34.2483L12.4789 35.5211C14.0022 37.0443 16.0681 37.9 18.2222 37.9V36.1ZM13.7517 34.2483C12.5661 33.0626 11.9 31.4545 11.9 29.7778H10.1C10.1 31.9319 10.9557 33.9978 12.4789 35.5211L13.7517 34.2483ZM32.6103 16.6786L32.6255 16.6618L31.2936 15.451L31.2784 15.4678L32.6103 16.6786Z" fill="#2741E8"/>
</svg>
