<svg width="48" height="48" viewBox="0 0 48 48" fill="none" xmlns="http://www.w3.org/2000/svg">
<path d="M14.1901 20.7912H11.7346C10.8906 20.7912 10.2 21.4818 10.2 22.3259V35.555C10.2 36.399 10.8906 37.0896 11.7346 37.0896H14.1901C15.0342 37.0896 15.7248 36.399 15.7248 35.555V22.3259C15.7248 21.4818 15.0342 20.7912 14.1901 20.7912Z" stroke="#3E58FF" stroke-width="1.5" stroke-linecap="round" stroke-linejoin="round"/>
<path d="M25.2398 15.8956H22.7843C21.9402 15.8956 21.2496 16.5862 21.2496 17.4302V35.5549C21.2496 36.399 21.9402 37.0896 22.7843 37.0896H25.2398C26.0838 37.0896 26.7744 36.399 26.7744 35.5549V17.4302C26.7744 16.5862 26.0838 15.8956 25.2398 15.8956Z" stroke="#3E58FF" stroke-width="1.5" stroke-linecap="round" stroke-linejoin="round"/>
<path d="M36.2902 11H33.8347C32.9906 11 32.3 11.6906 32.3 12.5347V35.5551C32.3 36.3991 32.9906 37.0897 33.8347 37.0897H36.2902C37.1343 37.0897 37.8249 36.3991 37.8249 35.5551V12.5347C37.8249 11.6906 37.1343 11 36.2902 11Z" stroke="#3E58FF" stroke-width="1.5" stroke-linecap="round" stroke-linejoin="round"/>
</svg>
