<svg width="48" height="48" viewBox="0 0 48 48" fill="none" xmlns="http://www.w3.org/2000/svg">
<path d="M42 24C42 33.9411 33.9411 42 24 42C14.0589 42 6 33.9411 6 24C6 14.0589 14.0589 6 24 6C33.9411 6 42 14.0589 42 24Z" fill="#DEE6FE"/>
<path fill-rule="evenodd" clip-rule="evenodd" d="M29.7751 14.5212C28.2932 13.7874 26.558 13.7529 25.0477 14.4272L15.9574 18.486C15.3493 18.7575 14.9581 19.3582 14.9581 20.0205V21.0909C14.9581 21.7289 15.3214 22.3119 15.8961 22.5965L23.2443 26.2354C23.7202 26.4711 24.2798 26.4711 24.7557 26.2354L32.1682 22.5647C33.4701 21.92 35 22.8605 35 24.3054V25.6766C35 26.4142 34.58 27.0883 33.9155 27.4173L24.8736 31.895C24.3235 32.1674 23.6765 32.1674 23.1264 31.895L16.0824 28.4067C15.5655 28.1508 14.9581 28.5242 14.9581 29.0978C14.9581 29.3906 15.1248 29.6583 15.3887 29.7889L23.2534 33.6836C23.726 33.9176 24.2815 33.9193 24.7555 33.6881L30.9276 30.6781C31.413 30.4414 31.9997 30.6403 32.238 31.1225C32.4763 31.6046 32.276 32.1873 31.7906 32.4241L24.8663 35.8009C24.3182 36.0682 23.6761 36.0663 23.1297 35.7957L14.0845 31.3164C13.42 30.9873 13 30.3133 13 29.5757V27.85C13 26.4051 14.5299 25.4646 15.8318 26.1093L23.2443 29.78C23.7202 30.0157 24.2798 30.0157 24.7557 29.78L32.6998 25.8461C32.9094 25.7422 33.0419 25.5296 33.0419 25.2969C33.0419 24.8411 32.5592 24.5444 32.1485 24.7478L24.8736 28.3504C24.3235 28.6228 23.6765 28.6228 23.1264 28.3504L14.0845 23.8727C13.42 23.5437 13 22.8696 13 22.132V18.9322C13 18.1665 13.4522 17.4721 14.1553 17.1582L24.2449 12.6532C26.2907 11.7397 28.6413 11.7864 30.6488 12.7805C34.3108 14.594 34.2345 19.8101 30.5209 21.517L24.8423 24.1272C24.2978 24.3775 23.6678 24.366 23.1329 24.096L17.7631 21.3855C17.2811 21.1422 17.0889 20.5567 17.3338 20.0779C17.5788 19.5991 18.1681 19.4082 18.6502 19.6515L23.2873 21.9922C23.75 22.2257 24.2949 22.2357 24.7659 22.0192L29.6986 19.7518C31.9219 18.7299 31.9676 15.607 29.7751 14.5212Z" fill="#2741E8"/>
</svg>
