<svg width="174" height="33" viewBox="0 0 174 33" fill="none" xmlns="http://www.w3.org/2000/svg">
<g clip-path="url(#clip0_103_106)">
<circle cx="16.5" cy="16.5" r="16.5" fill="#DEE6FE"/>
<path fill-rule="evenodd" clip-rule="evenodd" d="M21.8819 7.91455C20.5452 7.24813 18.9799 7.21679 17.6175 7.82917L9.41771 11.515C8.86916 11.7616 8.51631 12.3071 8.51631 12.9085V13.8806C8.51631 14.4599 8.84398 14.9894 9.36244 15.2479L15.9909 18.5524C16.4201 18.7664 16.9249 18.7664 17.3541 18.5524L24.0406 15.2189C25.2149 14.6335 26.595 15.4875 26.595 16.7997V18.0449C26.595 18.7147 26.2162 19.3269 25.6168 19.6257L17.4606 23.6919C16.9643 23.9393 16.3807 23.9393 15.8844 23.6919L9.53045 20.5242C9.06423 20.2917 8.51631 20.6308 8.51631 21.1518C8.51631 21.4177 8.66671 21.6607 8.90469 21.7793L15.999 25.3162C16.4254 25.5287 16.9264 25.5302 17.354 25.3203L22.9216 22.5868C23.3594 22.3719 23.8886 22.5525 24.1035 22.9904C24.3185 23.4282 24.1378 23.9574 23.7 24.1723L17.4539 27.2389C16.9596 27.4816 16.3803 27.4799 15.8874 27.2342L7.72824 23.1665C7.12882 22.8677 6.75 22.2555 6.75 21.5857V20.0186C6.75 18.7064 8.13008 17.8524 9.30438 18.4378L15.9909 21.7713C16.4201 21.9853 16.9249 21.9853 17.3541 21.7713L24.5201 18.1988C24.7092 18.1045 24.8287 17.9114 24.8287 17.7001C24.8287 17.2862 24.3933 17.0167 24.0229 17.2014L17.4606 20.473C16.9643 20.7204 16.3807 20.7204 15.8844 20.473L7.72824 16.4068C7.12883 16.108 6.75 15.4958 6.75 14.826V11.9202C6.75 11.2249 7.15794 10.5943 7.79214 10.3092L16.8934 6.21814C18.7388 5.38859 20.8592 5.43104 22.67 6.33379C25.9733 7.98063 25.9044 12.7174 22.5546 14.2675L17.4323 16.6379C16.9411 16.8652 16.3729 16.8547 15.8904 16.6095L11.0465 14.1481C10.6117 13.9271 10.4383 13.3955 10.6593 12.9607C10.8803 12.5258 11.4119 12.3525 11.8467 12.5734L16.0296 14.699C16.447 14.9111 16.9385 14.9201 17.3634 14.7235L21.8129 12.6645C23.8184 11.7365 23.8596 8.90052 21.8819 7.91455Z" fill="#2741E8"/>
<path d="M49.928 26.352C45.288 26.352 42.024 22.704 42.024 17.52C42.024 12.4 45.352 8.72 49.928 8.72C54.12 8.72 57.16 11.504 57.768 15.92H54.376C54.024 13.2 52.328 11.568 49.96 11.568C47.176 11.568 45.352 13.936 45.352 17.52C45.352 21.136 47.176 23.472 49.96 23.472C52.36 23.472 54.024 21.872 54.408 19.12H57.768C57.192 23.6 54.184 26.352 49.928 26.352ZM67.009 26.32C62.209 26.32 58.689 22.544 58.689 17.52C58.689 12.496 62.209 8.72 67.009 8.72C71.809 8.72 75.329 12.496 75.329 17.52C75.329 22.544 71.809 26.32 67.009 26.32ZM67.009 23.472C69.793 23.472 72.001 21.232 72.001 17.52C72.001 13.808 69.793 11.6 67.009 11.6C64.225 11.6 62.049 13.808 62.049 17.52C62.049 21.232 64.225 23.472 67.009 23.472ZM80.8958 16.432V26H77.6638V9.04H80.6718V11.856C81.8238 9.968 83.7438 8.72 86.0798 8.72C89.5678 8.72 91.8718 10.96 91.8718 15.024V26H88.6398V16.112C88.6398 13.2 87.3598 11.568 84.9598 11.568C82.7518 11.568 80.8958 13.424 80.8958 16.432ZM101.892 26.352C97.2517 26.352 93.9877 22.704 93.9877 17.52C93.9877 12.4 97.3157 8.72 101.892 8.72C106.084 8.72 109.124 11.504 109.732 15.92H106.34C105.988 13.2 104.292 11.568 101.924 11.568C99.1397 11.568 97.3157 13.936 97.3157 17.52C97.3157 21.136 99.1397 23.472 101.924 23.472C104.324 23.472 105.988 21.872 106.372 19.12H109.732C109.156 23.6 106.148 26.352 101.892 26.352ZM118.845 26.32C113.949 26.32 110.653 22.768 110.653 17.424C110.653 12.4 114.077 8.72 118.749 8.72C123.805 8.72 127.165 12.816 126.589 18.32H113.949C114.205 21.776 115.933 23.792 118.781 23.792C121.181 23.792 122.845 22.48 123.389 20.272H126.589C125.757 24.048 122.845 26.32 118.845 26.32ZM118.685 11.152C116.093 11.152 114.333 13.008 113.981 16.176H123.165C123.005 13.04 121.309 11.152 118.685 11.152ZM145.257 17.52C145.257 22.64 142.313 26.32 137.769 26.32C135.465 26.32 133.513 25.168 132.297 23.12V32.176H129.065V9.04H132.073V12.144C133.289 9.968 135.369 8.72 137.769 8.72C142.281 8.72 145.257 12.4 145.257 17.52ZM141.897 17.52C141.897 13.712 139.881 11.568 137.097 11.568C134.409 11.568 132.297 13.712 132.297 17.52C132.297 21.264 134.377 23.44 137.097 23.44C139.881 23.44 141.897 21.328 141.897 17.52ZM156.892 22.864V25.712C155.9 26.16 155.036 26.32 154.012 26.32C150.876 26.32 148.7 24.624 148.7 20.88V11.792H144.956V9.04H148.7V4.016H151.932V9.04H157.052V11.792H151.932V20.144C151.932 22.48 153.052 23.312 154.78 23.312C155.548 23.312 156.22 23.184 156.892 22.864ZM165.811 26.32C161.011 26.32 157.491 22.544 157.491 17.52C157.491 12.496 161.011 8.72 165.811 8.72C170.611 8.72 174.132 12.496 174.132 17.52C174.132 22.544 170.611 26.32 165.811 26.32ZM165.811 23.472C168.595 23.472 170.803 21.232 170.803 17.52C170.803 13.808 168.595 11.6 165.811 11.6C163.027 11.6 160.851 13.808 160.851 17.52C160.851 21.232 163.027 23.472 165.811 23.472Z" fill="#0A243F"/>
</g>
<defs>
<clipPath id="clip0_103_106">
<rect width="174" height="33" fill="white"/>
</clipPath>
</defs>
</svg>
