<svg width="48" height="48" viewBox="0 0 48 48" fill="none" xmlns="http://www.w3.org/2000/svg">
<path d="M24.0001 29.3333C24.4801 29.3333 24.9468 29.2933 25.4001 29.2133C28.0534 28.8266 30.3334 27.32 31.7734 25.1866C32.7601 23.7066 33.3334 21.9333 33.3334 20C33.3334 14.84 29.1601 10.6666 24.0001 10.6666C18.8401 10.6666 14.6668 14.84 14.6668 20C14.6668 21.9333 15.2401 23.7066 16.2268 25.1866C17.6668 27.32 19.9468 28.8266 22.6001 29.2133C23.0534 29.2933 23.5201 29.3333 24.0001 29.3333ZM24.0001 29.3333L30.3601 36.64C31.0667 37.48 32.4267 37.16 32.6801 36.0934L33.1467 34.1334C33.2534 33.64 33.6401 33.2667 34.1334 33.1467L36.3334 32.6267C37.3467 32.3867 37.7067 31.12 36.9734 30.4L31.7734 25.2C30.3334 27.3334 28.0534 28.84 25.4001 29.2267C24.9467 29.3067 24.4801 29.3467 24.0001 29.3467C23.5201 29.3467 23.0534 29.3067 22.6001 29.2267C19.9467 28.84 17.6667 27.3334 16.2267 25.2L11.0267 30.4C10.2934 31.1333 10.6534 32.4 11.6667 32.64L13.8667 33.16C14.3467 33.2667 14.7334 33.6533 14.8534 34.1467L15.3201 36.1067C15.5734 37.1733 16.9334 37.4933 17.6401 36.6533L24.0001 29.3333ZM24.7734 15.9733L25.56 17.5467C25.6667 17.76 25.9467 17.9733 26.2 18.0133L27.6267 18.2533C28.5334 18.4 28.7467 19.0667 28.0934 19.72L26.9867 20.8266C26.8 21.0133 26.6934 21.3733 26.76 21.64L27.08 23.0133C27.3334 24.0933 26.76 24.52 25.8 23.9466L24.4667 23.16C24.2267 23.0133 23.8267 23.0133 23.5867 23.16L22.2534 23.9466C21.2934 24.5066 20.72 24.0933 20.9734 23.0133L21.2934 21.64C21.3467 21.3867 21.2534 21.0133 21.0667 20.8266L19.96 19.72C19.3067 19.0667 19.52 18.4133 20.4267 18.2533L21.8534 18.0133C22.0934 17.9733 22.3734 17.76 22.48 17.5467L23.2667 15.9733C23.6534 15.12 24.3467 15.12 24.7734 15.9733Z" stroke="#3E58FF" stroke-width="1.5" stroke-linecap="round" stroke-linejoin="round"/>
</svg>
