<svg width="48" height="48" viewBox="0 0 48 48" fill="none" xmlns="http://www.w3.org/2000/svg">
<path d="M31.8649 24.8038L32.4148 25.3138L31.8649 24.8038ZM23.1963 16.1351L22.6862 15.5852L23.1963 16.1351ZM35.9809 14.3384L36.7245 14.4357L35.9809 14.3384ZM33.6616 12.0191L33.7588 12.7628L33.6616 12.0191ZM17.8617 27.271L18.392 26.7407L17.8617 27.271ZM17.3876 24.6097L18.0611 24.9398L17.3876 24.6097ZM20.729 30.1383L20.1987 30.6686L20.729 30.1383ZM23.3903 30.6124L23.0602 29.9389L23.3903 30.6124ZM19.3923 21.6728C19.0994 21.3799 18.6245 21.3799 18.3316 21.6728C18.0387 21.9657 18.0387 22.4405 18.3316 22.7334L19.3923 21.6728ZM25.2666 29.6684C25.5595 29.9613 26.0343 29.9613 26.3272 29.6684C26.6201 29.3755 26.6201 28.9006 26.3272 28.6077L25.2666 29.6684ZM17.2251 31.8356C17.518 31.5427 17.518 31.0678 17.2251 30.7749C16.9322 30.482 16.4574 30.482 16.1645 30.7749L17.2251 31.8356ZM12.697 34.2424C12.4041 34.5353 12.4041 35.0101 12.697 35.303C12.9899 35.5959 13.4648 35.5959 13.7577 35.303L12.697 34.2424ZM14.6245 29.2349C14.9174 28.9421 14.9174 28.4672 14.6245 28.1743C14.3316 27.8814 13.8568 27.8814 13.5639 28.1743L14.6245 29.2349ZM11.8301 29.908C11.5372 30.2009 11.5372 30.6758 11.8301 30.9687C12.123 31.2616 12.5979 31.2616 12.8908 30.9687L11.8301 29.908ZM19.8257 34.4362C20.1186 34.1433 20.1186 33.6684 19.8257 33.3755C19.5328 33.0826 19.058 33.0826 18.7651 33.3755L19.8257 34.4362ZM17.0313 35.1092C16.7384 35.4021 16.7384 35.877 17.0313 36.1699C17.3242 36.4628 17.7991 36.4628 18.092 36.1699L17.0313 35.1092ZM28.3975 31.7387L27.8672 31.2083H27.8672L28.3975 31.7387ZM24.4966 35.6396L25.0269 36.1699L24.4966 35.6396ZM22.4161 34.9461L23.1586 34.84L22.4161 34.9461ZM28.7443 30.6984L28.0018 30.8045L28.7443 30.6984ZM16.2613 19.6025L16.7917 20.1328L16.2613 19.6025ZM12.3604 23.5034L11.8301 22.9731H11.8301L12.3604 23.5034ZM13.0539 25.5839L13.16 24.8415H13.16L13.0539 25.5839ZM17.3016 19.2558L17.1955 19.9982L17.3016 19.2558ZM21.2593 29.608L18.392 26.7407L17.3314 27.8013L20.1987 30.6686L21.2593 29.608ZM31.315 24.2937C28.9706 26.8215 25.1763 28.9015 23.0602 29.9389L23.7205 31.2858C25.8521 30.2408 29.8674 28.0604 32.4148 25.3138L31.315 24.2937ZM18.0611 24.9398C19.0985 22.8237 21.1785 19.0294 23.7063 16.685L22.6862 15.5852C19.9396 18.1326 17.7593 22.1479 16.7142 24.2795L18.0611 24.9398ZM35.2372 14.2412C34.8641 17.0935 33.8699 21.539 31.315 24.2937L32.4148 25.3138C35.3128 22.1891 36.3468 17.3237 36.7245 14.4357L35.2372 14.2412ZM23.7063 16.685C26.461 14.1301 30.9065 13.1359 33.7588 12.7628L33.5643 11.2755C30.6763 11.6532 25.8109 12.6872 22.6862 15.5852L23.7063 16.685ZM36.7245 14.4357C36.9689 12.5676 35.4324 11.0311 33.5643 11.2755L33.7588 12.7628C34.6501 12.6462 35.3538 13.3499 35.2372 14.2412L36.7245 14.4357ZM18.392 26.7407C17.8988 26.2475 17.7718 25.5299 18.0611 24.9398L16.7142 24.2795C16.1251 25.4813 16.4136 26.8835 17.3314 27.8013L18.392 26.7407ZM20.1987 30.6686C21.1165 31.5865 22.5188 31.8749 23.7205 31.2858L23.0602 29.9389C22.4701 30.2282 21.7525 30.1012 21.2593 29.608L20.1987 30.6686ZM18.3316 22.7334L25.2666 29.6684L26.3272 28.6077L19.3923 21.6728L18.3316 22.7334ZM16.1645 30.7749L12.697 34.2424L13.7577 35.303L17.2251 31.8356L16.1645 30.7749ZM13.5639 28.1743L11.8301 29.908L12.8908 30.9687L14.6245 29.2349L13.5639 28.1743ZM18.7651 33.3755L17.0313 35.1092L18.092 36.1699L19.8257 34.4362L18.7651 33.3755ZM25.7 17.7719C24.4496 19.0223 24.4496 21.0496 25.7 22.3L26.7607 21.2393C26.096 20.5747 26.096 19.4971 26.7607 18.8325L25.7 17.7719ZM25.7 22.3C26.9504 23.5504 28.9777 23.5504 30.2281 22.3L29.1675 21.2393C28.5029 21.904 27.4253 21.904 26.7607 21.2393L25.7 22.3ZM30.2281 22.3C31.4786 21.0496 31.4786 19.0223 30.2281 17.7719L29.1675 18.8325C29.8321 19.4971 29.8321 20.5747 29.1675 21.2393L30.2281 22.3ZM30.2281 17.7719C28.9777 16.5214 26.9504 16.5215 25.7 17.7719L26.7607 18.8325C27.4253 18.1679 28.5029 18.1679 29.1675 18.8325L30.2281 17.7719ZM27.8672 31.2083L23.9663 35.1092L25.0269 36.1699L28.9278 32.269L27.8672 31.2083ZM23.1586 34.84L22.6385 31.1992L21.1535 31.4113L21.6737 35.0521L23.1586 34.84ZM27.655 28.3772L28.0018 30.8045L29.4867 30.5924L29.14 28.1651L27.655 28.3772ZM23.9663 35.1092C23.689 35.3866 23.2141 35.2283 23.1586 34.84L21.6737 35.0521C21.9039 36.664 23.8756 37.3213 25.0269 36.1699L23.9663 35.1092ZM28.9278 32.269C29.3676 31.8292 29.5747 31.208 29.4867 30.5924L28.0018 30.8045C28.023 30.9528 27.9731 31.1024 27.8672 31.2083L28.9278 32.269ZM15.731 19.0722L11.8301 22.9731L12.8908 24.0338L16.7917 20.1328L15.731 19.0722ZM12.9479 26.3264L16.5887 26.8465L16.8008 25.3616L13.16 24.8415L12.9479 26.3264ZM19.8349 18.8601L17.4076 18.5133L17.1955 19.9982L19.6227 20.345L19.8349 18.8601ZM11.8301 22.9731C10.6787 24.1245 11.336 26.0961 12.9479 26.3264L13.16 24.8415C12.7717 24.786 12.6134 24.3111 12.8908 24.0338L11.8301 22.9731ZM16.7917 20.1328C16.8976 20.0269 17.0472 19.977 17.1955 19.9982L17.4076 18.5133C16.792 18.4254 16.1708 18.6324 15.731 19.0722L16.7917 20.1328Z" fill="#2741E8"/>
</svg>
