<svg width="48" height="48" viewBox="0 0 48 48" fill="none" xmlns="http://www.w3.org/2000/svg">
<path d="M16.5 21.5V19C16.5 14.8625 17.75 11.5 24 11.5C30.25 11.5 31.5 14.8625 31.5 19V21.5M27.125 29C27.125 30.7259 25.7259 32.125 24 32.125C22.2741 32.125 20.875 30.7259 20.875 29C20.875 27.2741 22.2741 25.875 24 25.875C25.7259 25.875 27.125 27.2741 27.125 29ZM30.25 36.5H17.75C12.75 36.5 11.5 35.25 11.5 30.25V27.75C11.5 22.75 12.75 21.5 17.75 21.5H30.25C35.25 21.5 36.5 22.75 36.5 27.75V30.25C36.5 35.25 35.25 36.5 30.25 36.5Z" stroke="#636D80" stroke-width="2" stroke-linecap="round" stroke-linejoin="round"/>
</svg>
