<svg width="48" height="48" viewBox="0 0 48 48" fill="none" xmlns="http://www.w3.org/2000/svg">
<path d="M26.2459 12.8774L28.5337 17.4907C28.8456 18.1329 29.6775 18.7489 30.3795 18.8669L34.526 19.5615C37.1777 20.0071 37.8016 21.9468 35.8909 23.8602L32.6672 27.1105C32.1213 27.661 31.8223 28.7226 31.9913 29.4827L32.9142 33.5062C33.6421 36.691 31.9653 37.923 29.1706 36.2585L25.284 33.9387C24.5821 33.5194 23.4252 33.5194 22.7103 33.9387L18.8237 36.2585C16.0421 37.923 14.3522 36.6779 15.0802 33.5062L16.0031 29.4827C16.172 28.7226 15.8731 27.661 15.3271 27.1105L12.1035 23.8602C10.2057 21.9468 10.8166 20.0071 13.4683 19.5615L17.6149 18.8669C18.3038 18.7489 19.1357 18.1329 19.4477 17.4907L21.7354 12.8774C22.9833 10.3742 25.0111 10.3742 26.2459 12.8774Z" stroke="#3E58FF" stroke-width="1.5" stroke-linecap="round" stroke-linejoin="round"/>
</svg>
