<svg width="48" height="48" viewBox="0 0 48 48" fill="none" xmlns="http://www.w3.org/2000/svg">
<path fill-rule="evenodd" clip-rule="evenodd" d="M27.0673 10.7585L27.0697 10.7601L35.0518 15.9971C36.7238 17.0943 37.4675 18.9414 37.2828 20.7056V28C37.2828 28.4142 36.947 28.75 36.5328 28.75C36.1186 28.75 35.7828 28.4142 35.7828 28V23.7773C35.5629 23.9877 35.3193 24.1824 35.0519 24.3579L33.2571 25.5354V31.6908C33.2571 32.7233 32.8628 33.75 32.2625 34.584C31.6622 35.4179 30.8146 36.1167 29.8376 36.4423L25.5766 37.8582C25.1062 38.0094 24.5333 38.0742 23.9954 38.0742C23.4583 38.0742 22.8867 38.0096 22.4205 37.857L22.4173 37.8559L18.1639 36.4426C17.187 36.1169 16.3386 35.4179 15.7384 34.584C15.1381 33.75 14.7438 32.7233 14.7438 31.6908L14.7569 25.5295L12.9637 24.3588C9.93706 22.3829 9.93705 17.9588 12.9637 15.9828L20.9884 10.7441L20.9894 10.7435C21.8583 10.1726 22.9636 9.91062 24.0284 9.91249C25.0926 9.91435 26.1981 10.1799 27.0673 10.7585ZM35.7961 19.859C35.7874 19.9047 35.7828 19.9518 35.7828 20V20.6189C35.662 21.5822 35.1441 22.5032 34.2289 23.1038L26.2423 28.3437C25.6713 28.7191 24.8695 28.9308 24.0271 28.9308C23.1847 28.9308 22.3834 28.7195 21.8124 28.3441L13.7837 23.1028C11.6637 21.7188 11.6637 18.6229 13.7837 17.2388L21.8104 11.9988L21.8124 11.9975C22.3834 11.6222 23.1843 11.411 24.0257 11.4125C24.8672 11.414 25.6672 11.6279 26.2377 12.0082L26.2423 12.0112L34.2289 17.2512C35.1829 17.8773 35.7053 18.8516 35.7961 19.859ZM27.0657 29.5975L31.7571 26.5195V31.6908C31.7571 32.3517 31.4981 33.0783 31.0451 33.7077C30.5921 34.3369 29.9868 34.8113 29.3639 35.0191L25.1145 36.4311C24.8383 36.5194 24.4326 36.5742 23.9954 36.5742C23.5567 36.5742 23.1555 36.519 22.8884 36.4318L22.887 36.4314L18.6376 35.0193L16.2535 27.1467L16.2548 26.5073L20.9884 29.5975L20.9894 29.5982C21.8582 30.169 22.9632 30.4308 24.0271 30.4308C25.0913 30.4308 26.1967 30.1688 27.0657 29.5975ZM16.2535 27.1467L18.6376 35.0193C18.0148 34.8115 17.4087 34.3369 16.9558 33.7077C16.503 33.0786 16.244 32.3522 16.2438 31.6916L16.2535 27.1467Z" fill="#2741E8"/>
</svg>
