<svg width="48" height="48" viewBox="0 0 48 48" fill="none" xmlns="http://www.w3.org/2000/svg">
<path d="M33.0426 23.234C35.5538 23.234 37.5895 21.1983 37.5895 18.6871C37.5895 16.1759 35.5538 14.1402 33.0426 14.1402M38.0228 33.6075L38.4683 33.6711C39.8045 33.862 41 32.8252 41 31.4754V29.98C41 29.002 40.3852 28.1296 39.4642 27.8007C38.5455 27.4726 37.6079 27.2171 36.6598 27.0341M14.9577 23.234C12.4465 23.234 10.4108 21.1983 10.4108 18.6871C10.4108 16.1759 12.4465 14.1402 14.9577 14.1402M9.97723 33.6075L9.53172 33.6711C8.1955 33.862 7 32.8252 7 31.4754V29.98C7 29.002 7.6148 28.1296 8.53582 27.8007C9.45454 27.4726 10.3921 27.2171 11.3402 27.0341M18.5734 17.287C18.5734 20.483 21.1643 23.0739 24.3604 23.0739C27.5564 23.0739 30.1473 20.483 30.1473 17.287C30.1473 14.0909 27.5564 11.5 24.3604 11.5C21.1643 11.5 18.5734 14.0909 18.5734 17.287ZM28.1794 35.9169L32.2054 36.4921C33.4103 36.6642 34.4882 35.7293 34.4882 34.5122V31.6601C34.4882 30.4153 33.7058 29.305 32.5336 28.8864C27.2487 26.9989 21.4734 26.9989 16.1886 28.8864C15.0164 29.305 14.2339 30.4153 14.2339 31.6601V34.5122C14.2339 35.7293 15.3119 36.6642 16.5167 36.4921L20.5427 35.9169C23.0754 35.5551 25.6467 35.5551 28.1794 35.9169Z" stroke="#3E58FF" stroke-width="1.5" stroke-linecap="round"/>
</svg>
