<svg width="48" height="48" viewBox="0 0 48 48" fill="none" xmlns="http://www.w3.org/2000/svg">
<path d="M21.8878 28.2727C21.302 27.6869 20.3523 27.6869 19.7665 28.2727C19.1807 28.8584 19.1807 29.8082 19.7665 30.394L21.8878 28.2727ZM22.8271 31.3333L21.7665 32.394C22.3358 32.9633 23.253 32.9816 23.8446 32.4355L22.8271 31.3333ZM28.1779 28.4355C28.7866 27.8736 28.8246 26.9246 28.2627 26.3159C27.7008 25.7072 26.7518 25.6692 26.1431 26.2311L28.1779 28.4355ZM20.8087 11.7259C21.3937 11.1393 21.3924 10.1895 20.8058 9.60456C20.2192 9.01959 19.2694 9.0209 18.6845 9.60749L20.8087 11.7259ZM13.8578 14.4475C13.2728 15.0341 13.2741 15.9838 13.8607 16.5688C14.4473 17.1538 15.3971 17.1525 15.982 16.5659L13.8578 14.4475ZM29.3151 9.60749C28.7301 9.0209 27.7803 9.01959 27.1937 9.60456C26.6071 10.1895 26.6058 11.1393 27.1908 11.7259L29.3151 9.60749ZM32.0175 16.5659C32.6025 17.1525 33.5522 17.1538 34.1388 16.5688C34.7254 15.9838 34.7267 15.0341 34.1417 14.4475L32.0175 16.5659ZM14.1472 21.0917C14.0137 20.2741 13.2428 19.7195 12.4252 19.8529C11.6075 19.9863 11.0529 20.7573 11.1863 21.5749L14.1472 21.0917ZM14.5467 32.8533L13.0663 33.0949L13.0667 33.0974L14.5467 32.8533ZM33.0934 33.0133L31.6203 32.7308L31.6202 32.7312L33.0934 33.0133ZM36.8066 21.6158C36.9626 20.8022 36.4295 20.0162 35.6159 19.8602C34.8023 19.7041 34.0163 20.2372 33.8603 21.0508L36.8066 21.6158ZM19.7665 30.394L21.7665 32.394L23.8878 30.2727L21.8878 28.2727L19.7665 30.394ZM23.8446 32.4355L28.1779 28.4355L26.1431 26.2311L21.8097 30.2311L23.8446 32.4355ZM18.6845 9.60749L13.8578 14.4475L15.982 16.5659L20.8087 11.7259L18.6845 9.60749ZM27.1908 11.7259L32.0175 16.5659L34.1417 14.4475L29.3151 9.60749L27.1908 11.7259ZM12.1667 18.4667C12.1667 17.9725 12.2345 17.7058 12.2872 17.5767C12.3296 17.4729 12.3599 17.4591 12.3665 17.4547C12.3948 17.4357 12.4854 17.3872 12.7118 17.3506C12.9426 17.3133 13.2339 17.3 13.6267 17.3V14.3C12.8528 14.3 11.6605 14.3167 10.697 14.9621C9.5721 15.7155 9.16675 16.9872 9.16675 18.4667H12.1667ZM13.6267 17.3H34.3734V14.3H13.6267V17.3ZM34.3734 17.3C34.7663 17.3 35.0575 17.3133 35.2884 17.3506C35.5148 17.3872 35.6054 17.4357 35.6337 17.4547C35.6403 17.4591 35.6705 17.4729 35.713 17.5767C35.7657 17.7058 35.8334 17.9725 35.8334 18.4667H38.8334C38.8334 16.9872 38.4281 15.7155 37.3032 14.9621C36.3396 14.3167 35.1474 14.3 34.3734 14.3V17.3ZM35.8334 18.4667C35.8334 19.0881 35.759 19.4063 35.7034 19.5494C35.6638 19.6512 35.6587 19.6104 35.7194 19.5754C35.7364 19.5657 35.6788 19.6047 35.4179 19.6239C35.1367 19.6445 34.8541 19.6334 34.3734 19.6334V22.6334C34.7127 22.6334 35.2102 22.6472 35.6377 22.6158C36.0856 22.5829 36.6655 22.4928 37.2174 22.1747C38.4821 21.4458 38.8334 20.0367 38.8334 18.4667H35.8334ZM34.3734 19.6334H13.6267V22.6334H34.3734V19.6334ZM13.6267 19.6334C13.146 19.6334 12.8635 19.6445 12.5823 19.6239C12.3214 19.6047 12.2638 19.5657 12.2807 19.5754C12.3414 19.6104 12.3363 19.6512 12.2968 19.5494C12.2412 19.4063 12.1667 19.0881 12.1667 18.4667H9.16675C9.16675 20.0367 9.51805 21.4458 10.7827 22.1747C11.3347 22.4928 11.9146 22.5829 12.3624 22.6158C12.79 22.6472 13.2874 22.6334 13.6267 22.6334V19.6334ZM11.1863 21.5749L13.0663 33.0949L16.0272 32.6117L14.1472 21.0917L11.1863 21.5749ZM13.0667 33.0974C13.2947 34.4796 13.7224 35.9827 14.8427 37.1173C16.0054 38.2947 17.6631 38.8333 19.8134 38.8333V35.8333C18.1504 35.8333 17.3881 35.4253 16.9774 35.0094C16.5244 34.5506 16.2254 33.8137 16.0267 32.6092L13.0667 33.0974ZM19.8134 38.8333H27.8534V35.8333H19.8134V38.8333ZM27.8534 38.8333C30.1148 38.8333 31.7955 38.3415 32.9336 37.1489C34.0075 36.0236 34.3329 34.5161 34.5666 33.2954L31.6202 32.7312C31.3739 34.0172 31.1527 34.6696 30.7633 35.0777C30.438 35.4185 29.7387 35.8333 27.8534 35.8333V38.8333ZM34.5666 33.2958L36.8066 21.6158L33.8603 21.0508L31.6203 32.7308L34.5666 33.2958Z" fill="#3E58FF"/>
</svg>
