<svg width="48" height="48" viewBox="0 0 48 48" fill="none" xmlns="http://www.w3.org/2000/svg">
<path fill-rule="evenodd" clip-rule="evenodd" d="M16.4369 24.4827C16.2091 24.7457 16.012 25.0427 15.8539 25.3604C13.122 25.6383 10.6264 27.6967 10.2821 30.8376L9.92241 34.1148C9.65452 36.4083 11.5939 38.3309 13.8569 38.0782L17.1361 37.7183L17.1519 37.7163C18.6287 37.5224 19.8895 36.8915 20.8246 35.9564L20.8279 35.953C21.9045 34.8629 22.5272 33.4629 22.6393 31.9803C22.9105 31.8346 23.157 31.6686 23.3856 31.504C23.3921 31.4993 23.3985 31.4945 23.4049 31.4896L23.4167 31.4804L26.0433 29.3738C30.4504 25.8399 35.6735 18.7766 37.7755 13.5379C38.2229 12.4517 37.8773 11.378 37.1845 10.6983C36.497 9.99735 35.4271 9.7167 34.3654 10.1126L34.3492 10.1188C31.7165 11.1705 28.636 13.0125 25.7891 15.1228C22.9423 17.2331 20.2817 19.6468 18.5081 21.8672L18.5061 21.8697L16.4369 24.4827ZM34.8969 11.5153C32.4246 12.5043 29.4622 14.2673 26.6824 16.3278C24.9567 17.607 23.3197 18.9874 21.9275 20.349C24.776 20.8585 27.0348 23.0802 27.5993 25.9093C31.1467 22.2634 34.7648 17.0153 36.3846 12.9762L36.3877 12.9685C36.5761 12.5133 36.4457 12.0725 36.1309 11.766L36.1165 11.7517C35.8451 11.4727 35.4017 11.33 34.8969 11.5153ZM26.2353 27.2335C26.2021 24.1961 23.7241 21.7386 20.679 21.7386C20.6496 21.7386 20.6207 21.7369 20.5922 21.7336C20.2656 22.095 19.9608 22.452 19.681 22.8023L19.6801 22.8034L17.6202 25.4047C18.7935 25.6277 19.921 26.2058 20.8532 27.151C21.7571 28.0556 22.3218 29.1104 22.5486 30.2538L25.1048 28.2036C25.4758 27.9061 25.8536 27.5815 26.2353 27.2335ZM11.7732 31.0011C12.0451 28.5194 14.0979 26.9076 16.3233 26.8311C16.3603 26.8329 16.3978 26.832 16.4354 26.8283L16.452 26.8267C16.5717 26.8221 16.6971 26.8235 16.827 26.8278L16.9243 26.8334C16.9758 26.8364 17.0314 26.8396 17.0922 26.8428C18.0463 26.9726 18.9911 27.4264 19.7771 28.2123C20.5589 28.9942 20.9862 29.884 21.1104 30.8327L21.1133 30.8523C21.1209 30.9005 21.1274 30.9501 21.1328 31.0005L21.138 31.0732C21.1469 31.1981 21.1547 31.3067 21.1569 31.423C21.1573 31.4472 21.1574 31.4713 21.1574 31.4953L21.1576 31.5118C21.1528 32.7762 20.6694 33.9779 19.7623 34.8974C19.0724 35.5866 18.1232 36.0743 16.9643 36.2281L13.6925 36.5872L13.6909 36.5874C12.3819 36.7339 11.2558 35.6186 11.4125 34.287L11.4132 34.2812L11.7732 31.0011Z" fill="#3E58FF"/>
<path d="M16.6231 12.6651C17.5195 11.7686 18.3267 11.4147 19.0461 11.4147C19.7655 11.4147 20.5727 11.7686 21.4691 12.6651L21.937 13.133L17.5364 17.5336C17.2435 17.8265 17.2435 18.3014 17.5364 18.5943C17.8293 18.8872 18.3041 18.8872 18.597 18.5943L23.5304 13.6609C23.8233 13.3681 23.8233 12.8932 23.5304 12.6003C23.5133 12.5833 23.4957 12.5672 23.4775 12.5522L22.5298 11.6044C21.4662 10.5408 20.3 9.91473 19.0461 9.91473C17.7922 9.91473 16.626 10.5408 15.5624 11.6044L11.6158 15.5511L11.6122 15.5547C10.5522 16.6291 9.92609 17.7942 9.92609 19.0481C9.92609 20.3019 10.5522 21.4671 11.6122 22.5415C11.9031 22.8363 12.378 22.8395 12.6728 22.5486C12.9677 22.2577 12.9709 21.7829 12.68 21.488C11.78 20.5758 11.4261 19.7676 11.4261 19.0481C11.4261 18.329 11.7795 17.5214 12.6783 16.6099L16.6231 12.6651Z" fill="#3E58FF"/>
<path d="M34.8273 24.2216C34.6335 24.2215 34.4398 24.296 34.2929 24.4448C34.2895 24.4483 34.2862 24.4518 34.2828 24.4553L30.3512 28.3737C30.0578 28.6661 30.057 29.1409 30.3494 29.4343C30.6418 29.7277 31.1167 29.7285 31.41 29.4361L34.8298 26.0279L35.2849 26.4769C36.1971 27.3896 36.5535 28.1962 36.5535 28.9116C36.5535 29.6274 36.1966 30.4345 35.2832 31.3479L31.3365 35.2946C30.4401 36.191 29.633 36.5449 28.9135 36.5449C28.1941 36.5449 27.387 36.191 26.4905 35.2946C26.1976 35.0017 25.7228 35.0017 25.4299 35.2946C25.137 35.5875 25.137 36.0623 25.4299 36.3552C26.4934 37.4188 27.6596 38.0449 28.9135 38.0449C30.1674 38.0449 31.3336 37.4188 32.3972 36.3552L36.3439 32.4086C37.4171 31.3353 38.0535 30.1691 38.0535 28.9116C38.0535 27.654 37.4171 26.4878 36.3439 25.4146L36.3403 25.411L35.3686 24.4525C35.3653 24.449 35.3619 24.4456 35.3585 24.4421C35.212 24.2951 35.0197 24.2216 34.8273 24.2216Z" fill="#3E58FF"/>
</svg>
