<svg width="48" height="48" viewBox="0 0 48 48" fill="none" xmlns="http://www.w3.org/2000/svg">
<path fill-rule="evenodd" clip-rule="evenodd" d="M20.0005 9.91876C16.5932 9.91876 14.013 10.5956 12.3035 12.3051C10.594 14.0146 9.91718 16.5948 9.91718 20.0021V28.0021C9.91718 31.4094 10.594 33.9896 12.3035 35.6991C14.013 37.4086 16.5932 38.0854 20.0005 38.0854H28.0005C31.4078 38.0854 33.988 37.4086 35.6975 35.6991C37.407 33.9896 38.0838 31.4094 38.0838 28.0021V20.0021C38.0838 16.5948 37.407 14.0146 35.6975 12.3051C33.988 10.5956 31.4078 9.91876 28.0005 9.91876H20.0005ZM11.7091 16.7313C12.0182 15.251 12.5716 14.1583 13.3642 13.3658C14.4608 12.2691 16.1321 11.6304 18.6094 11.4632V16.7313H11.7091ZM20.1094 16.7313V11.4188H27.8906V16.6925C27.8906 16.7055 27.891 16.7184 27.8916 16.7313H20.1094ZM29.3896 16.7313H36.2919C35.9828 15.251 35.4294 14.1583 34.6368 13.3658C33.5401 12.269 31.8685 11.6302 29.3906 11.4631V16.6925C29.3906 16.7055 29.3903 16.7184 29.3896 16.7313ZM11.4915 18.2313C11.442 18.7791 11.4172 19.3684 11.4172 20.0021V28.0021C11.4172 31.2615 12.0736 33.3479 13.3642 34.6384C14.6547 35.929 16.7411 36.5854 20.0005 36.5854H28.0005C31.2599 36.5854 33.3463 35.929 34.6368 34.6384C35.9274 33.3479 36.5838 31.2615 36.5838 28.0021V20.0021C36.5838 19.3684 36.559 18.7791 36.5096 18.2313H11.4915Z" fill="#2741E8"/>
<path d="M21 25.6673C21 23.614 22.4533 22.774 24.2267 23.8007L27 25.4007C28.7733 26.4273 28.7733 28.1073 27 29.134L24.2267 30.734C22.4533 31.7607 21 30.9207 21 28.8673V25.6673Z" stroke="#2741E8" stroke-width="1.5" stroke-miterlimit="10" stroke-linecap="round" stroke-linejoin="round"/>
</svg>
