<svg width="48" height="48" viewBox="0 0 48 48" fill="none" xmlns="http://www.w3.org/2000/svg">
<path fill-rule="evenodd" clip-rule="evenodd" d="M9.91675 24C9.91675 16.2219 16.2221 9.91663 24.0001 9.91663C31.7781 9.91663 38.0834 16.2219 38.0834 24C38.0834 31.778 31.7781 38.0833 24.0001 38.0833C16.2221 38.0833 9.91675 31.778 9.91675 24ZM24.0001 11.4166C22.8703 11.4166 21.7753 11.5655 20.7337 11.8447C20.7609 11.9736 20.7542 12.1091 20.7113 12.2375C20.1261 13.9902 19.6753 15.7759 19.3588 17.5795C22.4414 17.2067 25.5585 17.2067 28.6411 17.5795C28.3247 15.7759 27.8738 13.9902 27.2886 12.2375C27.2447 12.1061 27.2393 11.9711 27.2661 11.8446C26.2246 11.5655 25.1297 11.4166 24.0001 11.4166ZM28.8784 19.1215C25.6405 18.6927 22.3594 18.6927 19.1215 19.1215C18.6927 22.3594 18.6927 25.6405 19.1215 28.8784C22.3594 29.3072 25.6405 29.3072 28.8784 28.8784C29.3072 25.6405 29.3072 22.3594 28.8784 19.1215ZM17.8003 17.8003C18.0768 16.0988 18.4678 14.4115 18.9735 12.75H18.6666C18.5846 12.75 18.5057 12.7368 18.4319 12.7125C15.7423 14.0419 13.5962 16.3042 12.4163 19.0767C14.1854 18.5207 15.9848 18.0953 17.8003 17.8003ZM11.8448 20.7338C11.9712 20.7607 12.1061 20.7552 12.2375 20.7113C13.9902 20.1261 15.7759 19.6753 17.5795 19.3588C17.2067 22.4414 17.2067 25.5585 17.5795 28.6411C15.7759 28.3247 13.9902 27.8738 12.2375 27.2886C12.1092 27.2457 11.9736 27.239 11.8448 27.2662C11.5656 26.2246 11.4167 25.1297 11.4167 24C11.4167 22.8703 11.5656 21.7754 11.8448 20.7338ZM30.4204 19.3588C32.224 19.6753 34.0098 20.1261 35.7625 20.7113C35.8939 20.7552 36.029 20.7607 36.1554 20.7338C36.4346 21.7754 36.5834 22.8703 36.5834 24C36.5834 25.1297 36.4345 26.2246 36.1553 27.2663C36.0265 27.239 35.8909 27.2457 35.7625 27.2886C34.0098 27.8738 32.2241 28.3247 30.4204 28.6411C30.7932 25.5585 30.7932 22.4414 30.4204 19.3588ZM35.5838 19.0767C33.8147 18.5208 32.0152 18.0953 30.1996 17.8003C29.9046 15.9847 29.4791 14.1853 28.9232 12.4161C31.914 13.6888 34.3111 16.0859 35.5838 19.0767ZM12.75 29.3333C12.75 29.4153 12.7369 29.4942 12.7126 29.568C13.9373 32.046 15.954 34.0627 18.432 35.2874C18.5058 35.2631 18.5847 35.25 18.6666 35.25H18.9735C18.4678 33.5885 18.0768 31.9011 17.8003 30.1996C16.0988 29.9232 14.4115 29.5321 12.75 29.0265V29.3333ZM28.6411 30.4204C25.5585 30.7932 22.4414 30.7932 19.3588 30.4204C19.6753 32.224 20.1261 34.0098 20.7113 35.7625C20.7542 35.8908 20.7609 36.0264 20.7337 36.1552C21.7753 36.4344 22.8703 36.5833 24.0001 36.5833C25.1297 36.5833 26.2246 36.4344 27.2661 36.1553C27.2393 36.0289 27.2447 35.8939 27.2886 35.7625C27.8738 34.0098 28.3247 32.2241 28.6411 30.4204ZM28.9232 35.5838C29.4792 33.8147 29.9046 32.0152 30.1996 30.1996C31.9012 29.9232 33.5885 29.5321 35.25 29.0265V29.3333C35.25 29.4154 35.2632 29.4943 35.2875 29.5682C33.9582 32.2578 31.6958 34.4039 28.9232 35.5838Z" fill="#3E58FF"/>
</svg>
